<svg xmlns="http://www.w3.org/2000/svg" fill="#000000" viewBox="0 0 512 512">
  <path d="M458 70a29054 29054 0 0 1-282 36 11531 11531 0 0 0-77 262l-22-81c-11-45-21-81-22-80L7 292c0 2 14 11 16 11l13-21 13-21 29 111 20 73 47-160 47-161 19-2a82632 82632 0 0 1 275-35l6-1-1-8c-2-14 1-13-33-8m-90 74c-17 4-16 3-16 23-1 25-29 147-36 157-14 21-58 60-74 66-22 7-43-5-48-27-6-31 16-78 43-94 16-8 22 3 7 13l-6 4v10c-1 29 28 21 35-9 5-21-5-38-24-40-64-5-113 110-65 154 29 27 75 12 118-38 11-12 10-12 4 14-6 28-3 37 14 35 9-1 9-2 17-44 10-47 18-62 43-78 27-18 32-1 15 50-13 42-12 58 3 69 15 10 63-23 98-68 16-20 10-31-7-12-38 42-64 61-73 51-4-4-3-10 6-34 18-49 20-71 8-84-15-16-46-4-69 25-4 6-8 9-8 8l16-56c29-89 29-102-1-95"/>
</svg>
