<?xml version="1.0" standalone="no"?>
<!DOCTYPE svg PUBLIC "-//W3C//DTD SVG 20010904//EN"
 "http://www.w3.org/TR/2001/REC-SVG-20010904/DTD/svg10.dtd">
<svg version="1.0" xmlns="http://www.w3.org/2000/svg"
 width="512.000000pt" height="512.000000pt" viewBox="0 0 512.000000 512.000000"
 preserveAspectRatio="xMidYMid meet">
<metadata>
Created by potrace 1.11, written by Peter Selinger 2001-2013
</metadata>
<g transform="translate(0.000000,512.000000) scale(0.100000,-0.100000)"
fill="#000000" stroke="none">
<path d="M3388 5025 c-2 -1 -30 -6 -63 -9 -80 -9 -110 -14 -110 -16 0 -2 -9
-4 -20 -5 -65 -7 -217 -61 -305 -108 -141 -76 -295 -212 -375 -332 -22 -33
-45 -65 -51 -72 -33 -35 -172 -353 -190 -435 -1 -5 -3 -9 -4 -10 -1 -2 -4 -12
-6 -23 -2 -11 -12 -54 -24 -95 -11 -41 -23 -91 -26 -110 -2 -19 -8 -48 -11
-65 -4 -16 -8 -34 -9 -40 -14 -68 -42 -322 -48 -435 -1 -31 -5 -60 -8 -66 -4
-5 -3 -16 2 -24 4 -7 5 -23 1 -34 -14 -40 -3 -579 15 -761 2 -22 6 -60 9 -85
8 -89 58 -382 72 -425 4 -11 8 -24 9 -30 14 -65 43 -155 96 -299 22 -59 111
-222 160 -294 50 -71 147 -176 220 -238 112 -94 336 -199 473 -220 17 -2 41
-6 55 -9 80 -14 158 -19 257 -18 l111 1 124 -130 c160 -170 184 -195 366 -385
l152 -160 205 136 c112 75 204 139 205 143 0 4 -28 33 -61 65 -34 32 -94 90
-134 128 -40 39 -134 128 -209 199 -75 72 -136 132 -136 135 0 3 20 17 45 30
97 51 261 200 320 288 15 24 32 43 37 43 5 0 6 5 3 10 -3 6 -1 10 4 10 6 0 11
4 11 10 0 5 15 33 33 62 33 53 46 78 87 173 30 69 90 245 83 245 -3 0 -1 6 5
13 9 11 53 203 67 292 13 83 16 101 21 135 2 19 6 53 9 75 2 22 6 67 10 100 4
33 8 96 10 140 2 44 4 80 6 80 7 0 4 532 -4 543 -6 8 -6 12 2 12 7 0 9 5 6 10
-3 6 -8 49 -11 98 -6 117 -12 197 -14 197 -1 0 -4 14 -5 30 -9 100 -40 285
-66 395 -12 47 -22 93 -24 103 -2 9 -7 22 -10 27 -3 5 -8 19 -11 30 -9 41 -14
57 -45 140 -41 109 -122 266 -185 355 -60 87 -201 229 -274 277 -84 55 -179
103 -251 126 -75 25 -173 52 -209 57 -14 2 -45 7 -70 11 -43 6 -317 14 -322 9z
m257 -459 c11 -2 20 -5 20 -7 0 -1 10 -3 22 -4 29 -3 129 -43 173 -69 137 -81
249 -241 315 -446 15 -47 29 -96 31 -110 3 -14 10 -43 16 -65 6 -22 12 -54 13
-72 2 -17 5 -35 8 -40 3 -5 8 -36 12 -68 3 -33 8 -67 10 -75 2 -8 7 -51 10
-95 4 -44 8 -91 10 -105 8 -50 17 -339 17 -535 0 -272 -13 -498 -37 -690 -2
-16 -7 -52 -10 -80 -3 -27 -13 -81 -21 -120 -8 -38 -17 -81 -19 -94 -10 -55
-69 -229 -91 -271 -13 -25 -24 -48 -24 -53 0 -4 -5 -13 -10 -20 -6 -7 -23 -31
-38 -53 -138 -209 -381 -308 -657 -270 -60 9 -194 52 -215 70 -8 8 -20 15 -27
17 -27 9 -123 97 -161 149 -62 82 -100 160 -143 287 -21 63 -38 117 -38 121 1
4 0 9 -1 12 -1 3 -3 12 -5 20 -2 8 -8 37 -14 63 -6 27 -9 53 -6 58 4 5 2 9 -2
9 -5 0 -10 12 -11 28 -1 15 -6 59 -11 97 -19 131 -22 166 -36 415 -14 224 -2
740 20 930 2 19 7 60 9 90 3 30 8 66 10 80 9 50 18 106 21 130 2 14 4 25 5 25
2 0 11 36 14 60 4 30 24 102 51 180 37 108 49 135 57 135 4 0 8 8 8 18 0 10 8
27 18 38 9 11 24 32 32 46 18 32 101 120 144 153 41 31 151 86 185 91 14 3 33
7 41 10 8 3 33 8 55 11 22 3 41 6 42 7 5 4 187 -3 208 -8z"/>
<path d="M570 4236 c0 -36 2 -66 5 -66 3 0 100 -21 216 -46 116 -25 218 -47
227 -49 81 -15 181 -39 178 -42 -1 -2 -77 -24 -167 -49 -256 -70 -230 -56
-227 -121 l3 -55 140 -39 c77 -21 158 -44 180 -50 22 -6 48 -14 59 -18 11 -4
-41 -19 -140 -40 -88 -19 -206 -44 -264 -57 -58 -13 -116 -25 -130 -27 -82
-16 -80 -13 -80 -84 0 -57 2 -64 18 -59 15 4 393 92 482 112 19 4 37 8 40 9 3
1 60 14 128 30 l122 29 0 62 c0 71 15 59 -135 103 -38 11 -121 35 -184 54
l-113 34 168 48 c93 26 190 54 217 62 l47 14 0 63 c0 62 -1 64 -27 68 -16 3
-118 26 -228 52 -110 26 -267 63 -350 82 -82 19 -158 37 -167 40 -16 5 -18 -2
-18 -60z"/>
<path d="M870 3352 c-126 -11 -245 -89 -292 -192 -31 -66 -34 -193 -6 -268 37
-102 117 -179 223 -216 65 -23 222 -30 295 -12 222 52 327 241 276 495 -9 46
-24 100 -32 121 l-15 38 -63 1 -63 1 33 -83 c62 -153 53 -305 -20 -376 -41
-40 -115 -67 -188 -70 l-58 -2 -2 282 -3 283 -25 1 c-14 0 -41 -1 -60 -3z
m-10 -338 c0 -165 -3 -214 -12 -214 -20 1 -91 36 -113 56 -49 45 -67 84 -71
150 -3 78 8 115 49 156 31 31 94 63 128 65 18 2 19 -10 19 -213z"/>
<path d="M1260 2380 l0 -130 -345 0 -345 0 0 -165 0 -165 50 0 50 0 0 100 0
100 295 0 295 0 0 -130 0 -130 50 0 50 0 0 325 0 325 -50 0 -50 0 0 -130z"/>
<path d="M260 2185 l0 -65 80 0 80 0 0 64 0 63 -80 2 -80 2 0 -66z"/>
<path d="M300 1576 c0 -42 2 -76 4 -76 10 0 921 -242 925 -245 2 -2 -10 -7
-25 -11 -16 -4 -87 -22 -159 -41 -71 -19 -137 -36 -146 -38 -19 -4 -308 -81
-481 -127 l-118 -32 0 -74 c0 -72 1 -73 23 -66 12 4 249 73 527 154 l505 147
0 88 0 88 -270 78 c-663 194 -761 222 -772 226 -10 4 -13 -14 -13 -71z"/>
</g>
</svg>
