<?xml version="1.0" standalone="no"?>
<!DOCTYPE svg PUBLIC "-//W3C//DTD SVG 20010904//EN"
 "http://www.w3.org/TR/2001/REC-SVG-20010904/DTD/svg10.dtd">
<svg version="1.0" xmlns="http://www.w3.org/2000/svg"
 width="512.000000pt" height="512.000000pt" viewBox="0 0 512.000000 512.000000"
 preserveAspectRatio="xMidYMid meet">
<metadata>
Created by potrace 1.11, written by Peter Selinger 2001-2013
</metadata>
<g transform="translate(0.000000,512.000000) scale(0.100000,-0.100000)"
fill="#000000" stroke="none">
<path d="M4820 4453 c-14 -2 -92 -13 -175 -24 -82 -11 -166 -22 -185 -24 -79
-10 -459 -60 -605 -80 -31 -4 -248 -32 -320 -41 -22 -2 -53 -6 -70 -8 -44 -6
-196 -26 -225 -31 -14 -2 -50 -6 -80 -10 -30 -3 -86 -10 -125 -15 -38 -5 -95
-12 -125 -15 -30 -3 -62 -8 -70 -10 -8 -2 -42 -6 -75 -10 -33 -3 -89 -10 -125
-15 -36 -5 -92 -12 -125 -15 -33 -4 -67 -8 -75 -10 -8 -2 -44 -7 -80 -10 -36
-3 -76 -8 -90 -10 -14 -2 -43 -6 -65 -9 -22 -3 -60 -8 -85 -11 -25 -3 -99 -12
-165 -20 -66 -8 -135 -17 -153 -19 -18 -2 -36 -7 -39 -10 -5 -5 -105 -321
-123 -391 -4 -16 -26 -88 -48 -160 -22 -71 -61 -202 -87 -290 -25 -88 -49
-167 -52 -175 -3 -8 -7 -19 -8 -25 -2 -5 -25 -86 -53 -180 -61 -205 -113 -383
-226 -780 -48 -165 -95 -329 -105 -365 -11 -36 -29 -101 -41 -145 -12 -44 -25
-83 -29 -87 -4 -4 -21 50 -39 120 -18 70 -44 168 -58 217 -63 229 -89 328
-154 580 -82 317 -132 502 -163 604 l-23 75 -21 -35 c-23 -38 -280 -495 -326
-579 -16 -30 -33 -59 -37 -65 -4 -5 -19 -30 -32 -55 -14 -25 -35 -62 -47 -83
-12 -21 -19 -43 -15 -49 7 -10 138 -98 148 -98 5 0 54 71 66 95 25 53 195 313
201 308 3 -5 28 -91 54 -193 26 -102 65 -252 87 -335 22 -82 41 -157 43 -165
2 -8 13 -51 25 -95 12 -44 37 -140 56 -213 19 -73 59 -221 89 -330 30 -108 71
-259 92 -334 20 -76 40 -138 43 -138 4 0 59 181 124 403 111 379 135 463 187
632 12 39 29 99 39 135 10 36 55 189 99 340 45 151 84 282 86 290 2 8 20 71
40 140 21 69 41 139 45 155 10 37 145 499 230 785 17 58 33 112 35 120 1 9 15
55 30 103 19 62 31 87 43 89 9 0 22 2 27 3 6 1 46 5 90 9 44 5 87 9 95 11 8 1
40 6 70 9 107 14 135 17 160 21 46 7 104 14 160 20 30 3 66 7 80 10 14 2 48 7
75 10 28 3 57 8 65 10 8 2 44 6 80 10 36 3 75 7 85 9 11 2 47 7 80 11 32 4 66
8 75 10 26 4 103 14 165 21 33 3 68 8 79 10 10 2 44 6 75 9 31 4 67 8 81 11
14 2 63 8 110 14 118 14 154 19 235 30 39 5 88 12 110 14 87 10 151 18 167 21
9 2 43 6 75 10 32 3 72 8 88 10 17 3 66 9 110 14 44 6 103 13 130 17 28 4 61
8 75 9 49 5 135 16 160 20 14 3 48 7 75 10 28 3 59 7 70 10 11 2 24 4 28 4 7
1 4 46 -9 125 -10 59 -30 75 -84 69z"/>
<path d="M3707 3684 c-94 -18 -138 -33 -163 -56 -19 -17 -22 -31 -23 -113 -1
-51 -3 -101 -5 -112 -2 -10 -7 -45 -10 -78 -4 -33 -11 -76 -16 -95 -5 -19 -12
-55 -15 -80 -4 -25 -8 -49 -9 -55 -2 -5 -6 -28 -11 -50 -4 -22 -9 -47 -11 -55
-1 -8 -12 -60 -24 -115 -12 -55 -24 -111 -26 -124 -3 -12 -12 -53 -20 -90 -9
-36 -17 -73 -19 -81 -3 -14 -22 -96 -31 -132 -2 -10 -6 -26 -8 -35 -41 -176
-116 -437 -144 -504 -63 -146 -521 -573 -719 -671 -56 -27 -78 -32 -147 -34
-225 -5 -376 157 -374 401 3 245 127 533 308 716 107 109 200 155 258 127 54
-27 12 -106 -92 -172 l-28 -18 4 -96 c5 -108 17 -141 58 -165 105 -63 252 74
293 273 27 135 -15 265 -107 327 -65 44 -116 56 -211 50 -152 -10 -282 -74
-417 -208 -131 -130 -231 -295 -292 -481 -22 -70 -30 -101 -51 -228 -4 -19 -7
-73 -7 -120 0 -289 128 -508 353 -602 72 -30 262 -32 354 -5 205 62 434 229
664 485 40 45 77 80 81 77 4 -2 -4 -53 -17 -112 -13 -59 -26 -119 -29 -133 -2
-14 -6 -34 -8 -45 -13 -61 -16 -156 -7 -193 17 -61 50 -82 130 -82 49 1 72 5
88 19 27 23 54 112 93 316 98 508 179 686 384 838 226 167 322 152 311 -47 -2
-42 -6 -84 -9 -94 -3 -9 -8 -31 -10 -47 -3 -17 -24 -91 -46 -165 -47 -152 -98
-340 -105 -385 -16 -94 -17 -203 -1 -256 19 -66 81 -143 129 -158 134 -43 432
133 726 429 196 198 321 369 321 439 0 72 -55 48 -173 -75 -260 -271 -374
-377 -486 -449 -89 -58 -154 -79 -196 -65 -67 22 -70 85 -12 255 141 406 169
502 185 634 17 144 -7 248 -74 315 -151 151 -472 26 -695 -270 -41 -54 -78
-81 -64 -47 4 10 8 25 10 33 10 46 162 563 214 728 157 500 183 688 102 732
-31 16 -82 18 -154 4z"/>
</g>
</svg>
